<?xml version="1.0" encoding="UTF-8" standalone="no"?>
<!-- Created with Inkscape (http://www.inkscape.org/) -->

<svg
   width="32.449669mm"
   height="15.341806mm"
   viewBox="0 0 32.449668 15.341806"
   version="1.1"
   id="svg5"
   xmlns="http://www.w3.org/2000/svg"
   xmlns:svg="http://www.w3.org/2000/svg">
  <defs
     id="defs2">
    <rect
       x="262.95688"
       y="-78.212814"
       width="612.21759"
       height="214.411"
       id="rect3696" />
    <rect
       x="77.847961"
       y="631.47437"
       width="426.50473"
       height="188.09875"
       id="rect9505" />
  </defs>
  <path
     id="path188"
     style="opacity:0.792829;fill:#ff00cc;fill-opacity:0.960784;fill-rule:evenodd;stroke-width:4.57725;stroke-linecap:round;stroke-linejoin:round;stroke-dashoffset:14.5574;stroke-opacity:0.960784"
     d="M 13.13326,0 A 13.13313,13.13313 0 0 0 6.56663,1.759849 13.13313,13.13313 0 0 0 0,13.133263 h 9.41173 a 5.2620955,5.2620955 0 0 0 0.48906,2.208544 h 9.54603 a 5.2620955,5.2620955 0 0 0 0.48906,-2.208544 h 6.33064 A 13.13313,13.13313 0 0 0 19.69989,1.759849 13.13313,13.13313 0 0 0 13.13326,0 Z" />
  <path
     id="circle3143"
     style="opacity:0.61752988;fill:#00ffff;fill-opacity:0.960784;fill-rule:evenodd;stroke-width:4.57725;stroke-linecap:round;stroke-linejoin:round;stroke-dashoffset:14.5574;stroke-opacity:0.960784"
     d="M 19.31641,0 A 13.13313,13.13313 0 0 0 12.74977,1.759849 13.13313,13.13313 0 0 0 6.18314,13.133263 h 6.36169 a 5.2622469,5.2622469 0 0 0 0.48984,2.208544 h 9.54914 a 5.2622469,5.2622469 0 0 0 0.48596,-2.208544 h 9.3799 A 13.13313,13.13313 0 0 0 25.88304,1.759849 13.13313,13.13313 0 0 0 19.31641,0 Z" />
</svg>
