<?xml version="1.0" encoding="UTF-8" standalone="no"?>
<!-- Created with Inkscape (http://www.inkscape.org/) -->

<svg
   width="105.03568mm"
   height="77.512581mm"
   viewBox="0 0 105.03568 77.512581"
   version="1.1"
   id="svg5"
   xmlns="http://www.w3.org/2000/svg"
   xmlns:svg="http://www.w3.org/2000/svg">
  <defs
     id="defs2">
    <rect
       x="77.847961"
       y="631.47437"
       width="426.50473"
       height="188.09875"
       id="rect9505" />
  </defs>
  <g
     id="layer1"
     transform="translate(-50.57239,-71.553771)">
    <g
       id="g355">
      <path
         id="path184"
         style="opacity:0.859275;fill:#00ffe8;fill-opacity:1;fill-rule:evenodd;stroke:#00ffe8;stroke-width:11.038;stroke-linecap:round;stroke-linejoin:round;stroke-dashoffset:14.5574;stroke-opacity:1"
         d="M 95.887728,143.54724 H 75.280829 L 56.091305,110.31 75.280832,77.072771 l 20.6069,2e-6 19.189528,33.237237 z" />
      <path
         id="path2190"
         style="opacity:0.818763;fill:#5c5cff;fill-opacity:1;fill-rule:evenodd;stroke:#5c5cff;stroke-width:11.038;stroke-linecap:round;stroke-linejoin:round;stroke-dashoffset:14.5574;stroke-opacity:1"
         d="m 130.89962,143.54724 h -20.6069 L 91.103195,110.31 110.29272,77.072771 l 20.6069,2e-6 19.18953,33.237237 z" />
      <path
         id="path2740"
         style="color:#000000;fill:#ffffff;stroke-linecap:round"
         d="M 80.944413,71.554806 62.086133,102.0253 a 1.5045,1.5045 0 0 0 0.486275,2.07222 1.5045,1.5045 0 0 0 2.072225,-0.48834 L 83.994356,72.345455 a 1.5045,1.5045 0 0 0 0.222726,-0.790649 z m 14.381035,0 -9.483659,14.013614 a 1.5045,1.5045 0 0 0 0.404109,2.087728 1.5045,1.5045 0 0 0 2.088245,-0.402042 L 98.388826,72.396615 a 1.5045,1.5045 0 0 0 0.09509,-0.162781 5.519552,5.519552 0 0 0 -2.59519,-0.679028 z m 15.706022,0 3.98218,5.685441 a 1.5,1.5 0 0 0 2.0898,0.367419 1.5,1.5 0 0 0 0.36742,-2.090312 l -2.77658,-3.962548 z m 16.02951,0 -2.77761,3.962548 a 1.5,1.5 0 0 0 0.3669,2.090312 1.5,1.5 0 0 0 2.0898,-0.367419 l 3.98373,-5.685441 z m -19.90473,0.99167 a 5.519552,5.519552 0 0 0 -1.64279,1.765784 l -0.45321,0.784965 11.43186,19.436023 a 1.549,1.549 0 0 0 2.12132,0.550871 1.549,1.549 0 0 0 0.54881,-2.121318 z m 33.39228,10.198861 -4.43746,6.332947 a 1.5,1.5 0 0 0 0.36742,2.087728 1.5,1.5 0 0 0 2.0898,-0.36742 l 3.63492,-5.186763 z m 4.63847,8.034652 -7.691,13.321671 a 1.5045,1.5045 0 0 0 0.55087,2.05465 1.5045,1.5045 0 0 0 2.05466,-0.55087 l 6.82232,-11.81685 z m 6.66316,11.541411 -3.7269,5.32113 a 1.5,1.5 0 0 0 0.3669,2.08979 1.5,1.5 0 0 0 2.0898,-0.3669 l 2.9254,-4.17701 z m -80.732537,25.33024 a 1.5045,1.5045 0 0 0 -0.674378,0.19999 1.5045,1.5045 0 0 0 -0.55087,2.05465 l 11.061857,19.16007 h 3.26285 a 1.5045,1.5045 0 0 0 -0.199471,-0.71261 L 72.4979,128.4025 a 1.5045,1.5045 0 0 0 -0.912089,-0.70125 1.5045,1.5045 0 0 0 -0.468188,-0.0496 z m 66.101387,0.84698 a 1.5,1.5 0 0 0 -0.92604,0.27078 1.5,1.5 0 0 0 -0.36742,2.08825 l 4.75475,6.7877 1.65468,-2.86598 -3.95221,-5.64255 a 1.5,1.5 0 0 0 -0.96894,-0.61753 1.5,1.5 0 0 0 -0.19482,-0.0207 z m -20.45404,2.34559 a 1.549,1.549 0 0 0 -1.24541,0.76119 l -9.24129,15.71274 a 5.519552,5.519552 0 0 0 2.67425,1.56425 l 9.23717,-15.70654 a 1.549,1.549 0 0 0 -0.55088,-2.12132 1.549,1.549 0 0 0 -0.87384,-0.21032 z m 16.48323,8.56382 a 1.5,1.5 0 0 0 -0.92604,0.26975 1.5,1.5 0 0 0 -0.36897,2.08979 l 3.44836,4.92167 a 5.519552,5.519552 0 0 0 0.27802,-0.38241 l 1.4087,-2.43964 -2.67787,-3.82044 a 1.5,1.5 0 0 0 -0.96687,-0.61702 1.5,1.5 0 0 0 -0.19533,-0.0217 z" />
      <ellipse
         style="opacity:1;fill:#ffffff;fill-opacity:1;fill-rule:evenodd;stroke:#ffffff;stroke-width:2.34594;stroke-linecap:round;stroke-linejoin:round;stroke-dasharray:none;stroke-dashoffset:14.5574;stroke-opacity:1"
         id="path7893"
         cx="71.19577"
         cy="129.15431"
         rx="2.4912596"
         ry="2.3671286" />
      <ellipse
         style="opacity:1;fill:#ffffff;fill-opacity:1;fill-rule:evenodd;stroke:#ffffff;stroke-width:2.34594;stroke-linecap:round;stroke-linejoin:round;stroke-dasharray:none;stroke-dashoffset:14.5574;stroke-opacity:1"
         id="ellipse7897"
         cx="63.364773"
         cy="-102.81764"
         rx="2.4912596"
         ry="2.3671286"
         transform="scale(1,-1)" />
      <path
         style="fill:none;stroke:#ffffff;stroke-width:3.009;stroke-linecap:round;stroke-linejoin:miter;stroke-dasharray:none;stroke-opacity:1"
         d="M 75.643002,112.96177 87.162537,132.9142"
         id="path7899" />
      <ellipse
         style="opacity:1;fill:#ffffff;fill-opacity:1;fill-rule:evenodd;stroke:#ffffff;stroke-width:2.34594;stroke-linecap:round;stroke-linejoin:round;stroke-dasharray:none;stroke-dashoffset:14.5574;stroke-opacity:1"
         id="ellipse7901"
         cx="75.643005"
         cy="112.96177"
         rx="2.4912596"
         ry="2.3671286" />
      <ellipse
         style="opacity:1;fill:#ffffff;fill-opacity:1;fill-rule:evenodd;stroke:#ffffff;stroke-width:2.34594;stroke-linecap:round;stroke-linejoin:round;stroke-dasharray:none;stroke-dashoffset:14.5574;stroke-opacity:1"
         id="ellipse7903"
         cx="87.162537"
         cy="132.91422"
         rx="2.4912596"
         ry="2.3671286" />
      <ellipse
         style="opacity:1;fill:#ffffff;fill-opacity:1;fill-rule:evenodd;stroke:#ffffff;stroke-width:2.34594;stroke-linecap:round;stroke-linejoin:round;stroke-dasharray:none;stroke-dashoffset:14.5574;stroke-opacity:1"
         id="ellipse7907"
         cx="87.088783"
         cy="-86.410675"
         rx="2.4912596"
         ry="2.3671286"
         transform="scale(1,-1)" />
      <path
         style="fill:none;stroke:#ffffff;stroke-width:3;stroke-linecap:round;stroke-linejoin:round;stroke-dasharray:none;stroke-opacity:1"
         d="m 126.48329,132.02618 -4.94256,7.05445"
         id="path933" />
      <path
         style="fill:none;stroke:#ffffff;stroke-width:3.009;stroke-linecap:round;stroke-linejoin:miter;stroke-dasharray:none;stroke-opacity:1"
         d="m 138.79851,104.85324 4.6833,7.37375"
         id="path989" />
      <path
         style="fill:none;stroke:#ffffff;stroke-width:3;stroke-linecap:round;stroke-linejoin:round;stroke-dasharray:none;stroke-opacity:1"
         d="m 121.54073,124.97173 4.94256,7.05445"
         id="path1087" />
      <path
         style="fill:none;stroke:#ffffff;stroke-width:3.009;stroke-linecap:round;stroke-linejoin:miter;stroke-dasharray:none;stroke-opacity:1"
         d="m 127.00865,101.17126 8.78086,12.56929"
         id="path1120" />
      <path
         style="fill:none;stroke:#ffffff;stroke-width:3.009;stroke-linecap:round;stroke-linejoin:miter;stroke-dasharray:none;stroke-opacity:1"
         d="m 135.78951,113.74055 -4.6833,7.37375"
         id="path1122" />
      <path
         style="fill:none;stroke:#ffffff;stroke-width:3.009;stroke-linecap:round;stroke-linejoin:miter;stroke-dasharray:none;stroke-opacity:1"
         d="m 131.69195,93.797508 -4.6833,7.373752"
         id="path1124" />
      <path
         style="fill:none;stroke:#ffffff;stroke-width:3;stroke-linecap:round;stroke-linejoin:round;stroke-dasharray:none;stroke-opacity:1"
         d="m 125.51201,76.379222 4.94256,7.05445"
         id="path1126" />
      <path
         style="fill:none;stroke:#ffffff;stroke-width:3.009;stroke-linecap:round;stroke-linejoin:miter;stroke-dasharray:none;stroke-opacity:1"
         d="m 141.83709,122.62336 -4.6833,7.37375"
         id="path1134" />
      <path
         style="fill:none;stroke:#ffffff;stroke-width:3;stroke-linecap:round;stroke-linejoin:round;stroke-dasharray:none;stroke-opacity:1"
         d="m 126.74939,86.743058 4.94256,7.05445"
         id="path1136" />
    </g>
    <path
       id="path4358"
       style="opacity:0.859275;fill:#ff55dd;fill-rule:evenodd;stroke:#ff55dd;stroke-width:11.038;stroke-linecap:round;stroke-linejoin:round;stroke-dashoffset:14.5574"
       d="m 266.6534,126.24793 h -20.6069 l -19.18953,-33.23724 19.18953,-33.237231 20.6069,2e-6 19.18953,33.237239 z" />
  </g>
</svg>
