<?xml version="1.0" encoding="UTF-8" standalone="no"?>
<!-- Created with Inkscape (http://www.inkscape.org/) -->

<svg
   width="91.885643mm"
   height="54.41246mm"
   viewBox="0 0 91.885643 54.412461"
   version="1.1"
   id="svg5"
   xmlns="http://www.w3.org/2000/svg"
   xmlns:svg="http://www.w3.org/2000/svg">
  <defs
     id="defs2" />
  <g
     id="layer1"
     transform="translate(-54.68424,-82.675708)">
    <path
       style="opacity:0.772908;fill:#2affd5;stroke:none;stroke-width:0.264583px;stroke-linecap:butt;stroke-linejoin:miter;stroke-opacity:1"
       d="M 103.54669,85.920633 91.416855,105.81355 c -1.36933,2.2457 -1.45822,5.93803 -0.1868,8.24057 3.72452,6.74511 11.030535,15.47119 15.266005,21.01999 1.57638,2.06517 4.74881,2.4755 7.20339,1.53525 9.77975,-3.74624 21.48662,-11.47555 30.49898,-16.53551 2.29349,-1.28766 3.05468,-4.16172 1.70142,-6.41715 L 134.39536,94.482545 c -1.56811,-2.613515 -4.22357,-4.143395 -7.07588,-5.217533 l -16.66781,-6.27686 c -2.65388,-0.999413 -5.62863,0.511265 -7.10498,2.932481 z"
       id="path964" />
    <path
       style="opacity:0.772908;fill:#ff00cc;stroke:none;stroke-width:0.264583px;stroke-linecap:butt;stroke-linejoin:miter;stroke-opacity:1"
       d="m 97.707428,85.920633 12.129832,19.892917 c 1.36933,2.2457 1.45822,5.93803 0.1868,8.24057 -3.72452,6.74511 -11.030532,15.47119 -15.266008,21.01999 -1.576377,2.06517 -4.748808,2.4755 -7.203386,1.53525 -9.779751,-3.74624 -21.486617,-11.47555 -30.498982,-16.53551 -2.293483,-1.28766 -3.054671,-4.16172 -1.701414,-6.41715 L 66.858759,94.482545 c 1.568108,-2.613515 4.223567,-4.143395 7.075874,-5.217533 l 16.667814,-6.27686 c 2.65388,-0.999413 5.62863,0.511265 7.104981,2.932481 z"
       id="path363" />
  </g>
</svg>
